<svg xmlns="http://www.w3.org/2000/svg" viewBox="0 0 64 64">
  <!-- Background circle with brand dark color -->
  <circle cx="32" cy="32" r="30" fill="#1a1a2e"/>
  <!-- Flame -->
  <path d="M32 8c0 0-8 10-8 18c0 3 1.5 5.5 3.5 7.5C25.5 35.5 24 38.5 24 42c0 6.6 5.4 12 8 14c2.6-2 8-7.4 8-14c0-3.5-1.5-6.5-3.5-8.5C38.5 31.5 40 29 40 26C40 18 32 8 32 8z" fill="#e85d04"/>
  <path d="M32 16c0 0-5 7-5 13c0 2.5 1.2 4.5 3 6c-1.2 1.8-2 4-2 6.5c0 4 3 8 4 9.5c1-1.5 4-5.5 4-9.5c0-2.5-0.8-4.7-2-6.5c1.8-1.5 3-3.5 3-6C37 23 32 16 32 16z" fill="#f48c06"/>
  <path d="M32 24c0 0-2.5 4-2.5 7.5c0 1.5 0.8 2.8 2 3.5c-0.5 1-0.8 2.2-0.8 3.5c0 2.5 1.3 4.5 1.3 4.5s1.3-2 1.3-4.5c0-1.3-0.3-2.5-0.8-3.5c1.2-0.7 2-2 2-3.5C34.5 28 32 24 32 24z" fill="#ffba08"/>
  <!-- Grill lines -->
  <line x1="24" y1="48" x2="40" y2="48" stroke="#c1121f" stroke-width="2" stroke-linecap="round"/>
  <line x1="22" y1="52" x2="42" y2="52" stroke="#c1121f" stroke-width="2" stroke-linecap="round"/>
  <line x1="24" y1="56" x2="40" y2="56" stroke="#c1121f" stroke-width="2" stroke-linecap="round"/>
</svg>
